<?xml version="1.0" encoding="UTF-8" standalone="no"?>
<!-- Created with Inkscape (http://www.inkscape.org/) -->

<svg
   xmlns:dc="http://purl.org/dc/elements/1.1/"
   xmlns:cc="http://creativecommons.org/ns#"
   xmlns:rdf="http://www.w3.org/1999/02/22-rdf-syntax-ns#"
   xmlns:svg="http://www.w3.org/2000/svg"
   xmlns="http://www.w3.org/2000/svg"
   xmlns:sodipodi="http://sodipodi.sourceforge.net/DTD/sodipodi-0.dtd"
   xmlns:inkscape="http://www.inkscape.org/namespaces/inkscape"
   width="23.001896mm"
   height="28.78455mm"
   viewBox="0 0 81.502782 101.9925"
   id="svg2"
   version="1.1"
   inkscape:version="0.92.2 (unknown)"
   sodipodi:docname="dcorpdev1.svg">
  <defs
     id="defs4" />
  <sodipodi:namedview
     id="base"
     pagecolor="#ffffff"
     bordercolor="#666666"
     borderopacity="1.0"
     inkscape:pageopacity="0.0"
     inkscape:pageshadow="2"
     inkscape:zoom="0.2267707"
     inkscape:cx="-1081.8936"
     inkscape:cy="495.51864"
     inkscape:document-units="px"
     inkscape:current-layer="layer1"
     showgrid="false"
     fit-margin-top="0"
     fit-margin-left="0"
     fit-margin-right="0"
     fit-margin-bottom="0"
     inkscape:window-width="1366"
     inkscape:window-height="716"
     inkscape:window-x="0"
     inkscape:window-y="0"
     inkscape:window-maximized="1" />
  <metadata
     id="metadata7">
    <rdf:RDF>
      <cc:Work
         rdf:about="">
        <dc:format>image/svg+xml</dc:format>
        <dc:type
           rdf:resource="http://purl.org/dc/dcmitype/StillImage" />
        <dc:title />
      </cc:Work>
    </rdf:RDF>
  </metadata>
  <g
     inkscape:label="Layer 1"
     inkscape:groupmode="layer"
     id="layer1"
     transform="translate(843.68452,1974.6968)">
    <g
       id="g834"
       transform="matrix(0.25,0,0,0.25,-602.19985,-1442.7754)">
      <text
         id="text856"
         y="-1757.6226"
         x="-949.04883"
         style="font-style:normal;font-weight:normal;font-size:106.04399872px;line-height:1.25;font-family:sans-serif;letter-spacing:0px;word-spacing:0px;fill:#b00017;fill-opacity:1;stroke:none;stroke-width:2.65109777"
         xml:space="preserve"><tspan
           style="font-style:normal;font-variant:normal;font-weight:normal;font-stretch:normal;font-family:Arvo;-inkscape-font-specification:Arvo;fill:#b00017;fill-opacity:1;stroke-width:2.65109777"
           y="-1757.6226"
           x="-949.04883"
           id="tspan854"
           sodipodi:role="line">&lt;/&gt;</tspan></text>
      <g
         style="font-style:normal;font-weight:normal;font-size:416.25px;line-height:125%;font-family:Sans;letter-spacing:0px;word-spacing:0px;fill:#333333;fill-opacity:1;stroke:none;stroke-width:1px;stroke-linecap:butt;stroke-linejoin:miter;stroke-opacity:1"
         id="g835"
         transform="translate(226.463,-2293.8022)">
        <path
           sodipodi:nodetypes="cccccccccccccccccccccccccccccccccc"
           inkscape:connector-curvature="0"
           id="path833"
           d="m -1192.1476,496.73208 c -0.7286,33.26286 29.0377,56.94121 57.3775,67.97883 41.3443,16.76037 90.672,10.82124 126.4944,-15.98335 10.03743,-8.98497 38.09793,-25.50601 33.16811,-35.76173 -21.41283,21.59157 -46.34681,46.79666 -78.86791,47.4525 -22.2489,-0.669 -44.744,1.67644 -66.7657,-1.95117 -27.8452,-7.12598 -57.8124,-23.99431 -66.9057,-52.97432 -6.6231,-25.12433 10.5681,-50.85993 34.5228,-58.50264 43.1566,-14.25028 91.8916,2.26553 124.6668,31.94719 5.4251,11.33011 15.3641,22.57607 23.4141,6.24375 11.5745,-13.50656 27.3471,-21.63575 43.82366,-27.32308 28.47377,-13.12818 56.82482,-29.60056 74.59946,-56.33666 16.27997,-22.4896 23.85793,-110.70542 18.55239,-126.327 -11.64941,-49.07366 -52.69637,-93.66079 -104.50801,-98.7667 -30.5234,-5.10066 -61.617,-4.23387 -92.1473,0.20813 -20.6314,0.30856 -39.5808,3.11796 -59.5758,6.89414 -20.1559,2.96861 -46.2217,3.7163 -58.0149,-16.44838 -12.634,-7.39757 -0.5337,30.03007 8.0258,34.40567 17.9818,18.54563 93.9751,21.61381 105.8446,19.89544 38.2768,0.091 80.08014,-7.1661 114.71104,13.63544 32.94834,18.93239 43.20923,59.34909 44.02819,94.8172 2.14702,43.67111 -9.33197,93.27614 -47.57445,119.23611 -22.03435,20.0561 -34.17677,-14.01879 -52.44748,-21.85312 -42.3876,-26.52343 -98.4519,-20.84603 -141.0307,2.36742 -22.066,12.69586 -44.278,34.46875 -41.3909,62.02343 z m 116.9663,-98.235 c 15.0517,9.83055 35.9707,-10.87815 45.833,-23.44008 18.2575,-21.67026 24.0176,-56.7303 3.3625,-78.9314 -7.7242,-10.19179 -18.9156,-17.68872 -25.8855,-28.33102 0.6809,-7.83773 12.3813,-39.61001 -0.7285,-31.78459 -18.8856,13.20356 -30.6932,36.14953 -32.9878,58.84084 -1.897,26.48685 23.9578,40.36003 36.6886,59.87496 10.3771,20.68099 -11.0745,35.11467 -26.2823,43.77129 z"
           style="font-style:normal;font-variant:normal;font-weight:600;font-stretch:normal;font-size:416.25px;font-family:'Teutonic No1';-inkscape-font-specification:'Teutonic No1 Semi-Bold';fill:#530c10;fill-opacity:1" />
      </g>
    </g>
    <path
       inkscape:connector-curvature="0"
       id="path866"
       style="font-style:normal;font-variant:normal;font-weight:normal;font-stretch:normal;font-size:medium;line-height:1.25;font-family:'Teutonic No1';-inkscape-font-specification:'Teutonic No1';letter-spacing:0px;word-spacing:0px;fill:#530c10;fill-opacity:1;stroke:none;stroke-width:0.9375"
       d="m -1173.5835,-2048.7712 q 0,1.725 0.9375,3 0.9375,1.3125 2.3625,2.175 1.425,0.9 3.075,1.35 1.6875,0.45 3.15,0.45 2.625,0 4.725,-0.975 2.1,-0.9375 4.05,-2.7 0.2625,-0.225 0.7875,-0.7125 0.525,-0.4875 0.7125,-0.975 0.037,0 0.037,-0.15 h -0.3 q -0.6,0.6375 -1.3875,1.3875 -0.7875,0.75 -1.6875,1.3875 -0.9,0.6375 -1.875,1.05 -0.975,0.45 -1.95,0.45 h -4.725 q -1.125,0 -2.4375,-0.45 -1.3125,-0.45 -2.475,-1.2375 -1.1625,-0.7875 -1.95,-1.875 -0.75,-1.05 -0.75,-2.2875 0,-1.2375 0.4875,-2.1375 0.525,-0.9 1.35,-1.5 0.8625,-0.6 1.875,-0.9 1.05,-0.3 2.1375,-0.3 2.4375,0 4.5375,0.825 2.1,0.825 3.9375,2.4 0.1125,0.075 0.2625,0.3375 0.1875,0.2625 0.375,0.525 0.1875,0.2625 0.375,0.4875 0.1875,0.1875 0.3,0.1875 h 0.075 q 0.825,-0.8625 1.725,-1.6875 0.9375,-0.825 2.0625,-1.2375 0.1125,-0.038 0.375,-0.1125 0.3,-0.1125 0.375,-0.15 0.225,-0.1125 0.675,-0.3375 0.45,-0.225 0.8625,-0.45 0.45,-0.225 0.7875,-0.375 0.375,-0.1875 0.45,-0.2625 2.925,-1.65 4.65,-4.4625 1.7625,-2.8125 1.7625,-6.2625 v -0.075 q -0.037,-0.037 -0.075,-0.15 -0.037,-0.1125 -0.1125,-0.15 0.1125,-1.95 -0.3,-3.825 -0.4125,-1.875 -1.35,-3.4875 -0.9375,-1.65 -2.3625,-2.9625 -1.3875,-1.3125 -3.2625,-2.1 -0.675,-0.2625 -1.575,-0.4125 -0.9,-0.1875 -1.875,-0.3 -0.9375,-0.1125 -1.8375,-0.15 -0.9,-0.037 -1.5,-0.037 h -0.675 q -0.1875,0 -0.825,0.075 -0.6375,0.075 -1.425,0.15 -0.75,0.075 -1.425,0.15 -0.6375,0.075 -0.7875,0.075 -0.3,0.037 -0.675,0 -0.3375,-0.037 -0.675,-0.037 -0.3375,0 -0.675,0.075 -0.3,0.037 -0.525,0.2625 -0.1875,0.037 -0.6,0.075 -0.4125,0.037 -0.8625,0.1125 -0.45,0.037 -0.9,0.1125 -0.4125,0.037 -0.5625,0.037 h -0.825 q -1.0875,0 -1.95,-0.45 -0.825,-0.45 -1.35,-1.3875 h -0.3375 q 0,1.575 0.6375,2.625 0.675,1.0125 1.725,1.6125 1.05,0.6 2.3625,0.8625 1.35,0.225 2.6625,0.225 h 0.1125 q 0.075,-0.037 0.225,-0.075 0.1875,-0.038 0.225,-0.075 0.375,0 1.3125,0 0.9375,-0.037 1.9875,-0.075 1.05,-0.037 1.95,-0.037 0.9375,-0.038 1.3125,-0.038 h 1.05 q 2.625,0 4.425,0.7875 1.8375,0.75 2.9625,2.175 1.125,1.3875 1.6125,3.375 0.4875,1.9875 0.4875,4.425 0,2.7 -0.7875,5.0625 -0.75,2.325 -2.7,4.1625 -0.4875,0.4125 -1.125,0.825 -0.6375,0.375 -1.3125,0.375 h -0.1875 q -1.0125,-1.0875 -1.95,-1.8375 -0.9375,-0.7875 -1.9875,-1.275 -1.0125,-0.525 -2.2125,-0.75 -1.2,-0.2625 -2.775,-0.2625 -1.3875,0 -2.9625,0.375 -1.575,0.3375 -3.0375,1.05 -1.425,0.675 -2.5875,1.7625 -1.1625,1.05 -1.6875,2.475 -0.1125,0.3375 -0.15,1.05 0,0.7125 0,1.125 z m 10.5375,-8.85 q 0,0.3 0.2625,0.3 1.0125,0 1.95,-0.6 0.975,-0.6375 1.725,-1.575 0.7875,-0.9375 1.2375,-2.025 0.45,-1.125 0.45,-2.0625 0,-0.975 -0.2625,-1.6875 -0.2625,-0.7125 -0.7125,-1.275 -0.4125,-0.6 -1.0125,-1.1625 -0.5625,-0.5625 -1.2,-1.2375 -0.075,-0.075 -0.225,-0.225 -0.1125,-0.1875 -0.1125,-0.225 v -1.8375 q 0,-0.1875 0.1125,-0.3 0.15,-0.15 0.3,-0.3 0.15,-0.15 0.2625,-0.3 0.15,-0.15 0.15,-0.375 -0.7125,0 -1.425,0.6375 -0.675,0.6 -1.2375,1.5 -0.525,0.8625 -0.8625,1.8 -0.3375,0.9375 -0.3375,1.6125 0,1.275 0.525,2.1 0.5625,0.825 1.2375,1.5 0.675,0.675 1.2,1.3125 0.5625,0.6 0.5625,1.425 0,0.7875 -0.4125,1.3125 -0.4125,0.525 -0.9,0.8625 -0.45,0.3375 -0.8625,0.525 -0.4125,0.1875 -0.4125,0.3 z" />
    <path
       inkscape:connector-curvature="0"
       id="path868"
       style="font-style:normal;font-variant:normal;font-weight:normal;font-stretch:normal;font-size:medium;line-height:1.25;font-family:'Teutonic No1';-inkscape-font-specification:'Teutonic No1';letter-spacing:0px;word-spacing:0px;fill:#530c10;fill-opacity:1;stroke:none;stroke-width:0.9375"
       d="m -1142.895,-2058.8212 q 0,2.175 0.4125,3.7125 0.4125,1.5375 1.3125,2.6625 0.9375,1.0875 2.3625,1.8375 1.4625,0.7125 3.525,1.3125 h 0.1125 q 0.225,0 0.3375,-0.1125 0.675,-1.1625 1.575,-1.9125 0.9375,-0.7875 1.9125,-1.6125 0.1125,-0.1125 0.3,-0.2625 0.1875,-0.1875 0.3375,-0.3375 0.1875,-0.1875 0.3,-0.3 0.15,-0.15 0.15,-0.1875 v -0.3 h -0.1875 q -0.6,0.45 -1.125,0.75 -0.4875,0.3 -1.0125,0.4875 -0.4875,0.15 -1.0875,0.225 -0.5625,0.075 -1.35,0.075 -0.7875,0 -1.4625,-0.375 -0.675,-0.375 -1.2375,-0.9375 -0.525,-0.6 -0.9375,-1.275 -0.375,-0.7125 -0.6,-1.3875 -0.15,-0.4125 -0.15,-0.975 0,-0.6 -0.3,-1.0125 v -1.0125 q 0,-0.6375 0,-1.425 0.037,-0.7875 0.15,-1.3125 0.075,-0.375 0.3375,-0.9 0.2625,-0.525 0.6375,-1.0125 0.375,-0.4875 0.7875,-0.825 0.4125,-0.3375 0.825,-0.3375 h 0.15 q 0.825,0.525 1.4625,0.8625 0.6375,0.3375 1.6875,0.3375 0.6,0 1.1625,-0.375 0.5625,-0.4125 0.975,-0.975 0.45,-0.6 0.7125,-1.275 0.2625,-0.675 0.2625,-1.2 -0.1875,0 -0.375,0.15 -0.15,0.15 -0.3,0.375 -0.15,0.225 -0.3,0.45 -0.1125,0.1875 -0.2625,0.3 h -0.675 q -0.6,0 -0.975,-0.225 -0.375,-0.225 -0.6375,-0.45 -0.225,-0.2625 -0.375,-0.4875 -0.15,-0.225 -0.3,-0.225 h -0.075 q 0,0.037 -0.075,0.075 -0.037,0.038 -0.075,0.1125 -0.7125,0.8625 -1.425,1.3125 -0.7125,0.45 -1.6125,1.0875 -0.7875,0.5625 -1.65,1.3125 -0.8625,0.75 -1.575,1.6125 -0.7125,0.8625 -1.2,1.875 -0.45,1.0125 -0.45,2.1 z" />
    <path
       inkscape:connector-curvature="0"
       id="path870"
       style="font-style:normal;font-variant:normal;font-weight:normal;font-stretch:normal;font-size:medium;line-height:1.25;font-family:'Teutonic No1';-inkscape-font-specification:'Teutonic No1';letter-spacing:0px;word-spacing:0px;fill:#530c10;fill-opacity:1;stroke:none;stroke-width:0.9375"
       d="m -1129.3827,-2057.7712 q 0,2.25 0.975,4.1625 1.0125,1.875 3.0375,2.9625 0.2625,0.15 0.75,0.375 0.4875,0.225 0.9375,0.45 0.45,0.225 0.7875,0.375 0.3375,0.15 0.375,0.15 h 0.1875 q 0.075,-0.075 0.3,-0.3 0.2625,-0.225 0.525,-0.45 0.2625,-0.225 0.4875,-0.45 0.2625,-0.225 0.375,-0.3 0.75,-0.6375 1.6875,-0.9375 0.9375,-0.3375 1.8,-0.8625 2.25,-1.5 3.2625,-3.3375 1.0125,-1.8375 1.0125,-4.6125 0,-1.5375 -0.45,-2.6625 -0.45,-1.1625 -1.275,-2.0625 -0.7875,-0.9 -1.875,-1.6125 -1.0875,-0.7125 -2.325,-1.425 -0.225,-0.1125 -0.3,-0.1875 -0.075,-0.075 -0.15,-0.1125 -0.037,-0.037 -0.1125,-0.037 -0.075,0 -0.2625,0 -0.1125,0 -0.375,0.1875 -0.225,0.1875 -0.4875,0.45 -0.2625,0.2625 -0.4875,0.4875 -0.1875,0.225 -0.3,0.3 -0.075,0.037 -0.2625,0.15 -0.1875,0.1125 -0.45,0.2625 -0.225,0.15 -0.45,0.3 -0.225,0.1125 -0.3375,0.1875 -0.075,0.037 -0.3375,0.1875 -0.2625,0.1125 -0.6,0.2625 -0.3,0.15 -0.5625,0.3 -0.2625,0.1125 -0.3375,0.15 -1.0125,0.5625 -1.875,1.3875 -0.8625,0.825 -1.5,1.8375 -0.6375,1.0125 -1.0125,2.1375 -0.375,1.125 -0.375,2.2875 z m 3.1125,-1.725 q 0,-1.125 0.1875,-2.175 0.225,-1.05 0.7125,-1.875 0.4875,-0.8625 1.3125,-1.35 0.825,-0.525 2.0625,-0.525 1.725,0 2.85,0.75 1.1625,0.7125 1.8375,1.875 0.675,1.1625 0.9375,2.625 0.3,1.4625 0.3,2.8875 v 1.6125 q -0.5625,1.8375 -1.5,2.5125 -0.9375,0.675 -2.85,0.675 -1.3875,0 -2.475,-0.6375 -1.0875,-0.6375 -1.8375,-1.6125 -0.75,-1.0125 -1.1625,-2.25 -0.375,-1.275 -0.375,-2.5125 z" />
    <path
       inkscape:connector-curvature="0"
       id="path872"
       style="font-style:normal;font-variant:normal;font-weight:normal;font-stretch:normal;font-size:medium;line-height:1.25;font-family:'Teutonic No1';-inkscape-font-specification:'Teutonic No1';letter-spacing:0px;word-spacing:0px;fill:#530c10;fill-opacity:1;stroke:none;stroke-width:0.9375"
       d="m -1110.076,-2052.7462 q 1.575,0.1125 2.85,0.6375 1.3125,0.525 2.5875,1.4625 0.075,0.075 0.2625,0.2625 0.1875,0.1875 0.4125,0.4125 0.225,0.225 0.4125,0.4125 0.225,0.15 0.375,0.15 h 0.075 l 0.45,-0.45 q 0.038,-0.037 0.15,-0.1875 0.15,-0.1875 0.3,-0.375 0.15,-0.1875 0.2625,-0.3375 0.15,-0.15 0.1875,-0.1875 0.225,-0.1875 0.7125,-0.675 0.525,-0.525 1.125,-1.0875 0.6,-0.5625 1.125,-1.05 0.525,-0.4875 0.75,-0.7125 v -0.45 h -0.3375 q -0.6375,0.6375 -1.2,1.0875 -0.525,0.45 -1.3875,0.45 -0.3,0 -0.6375,-0.075 -0.3375,-0.1125 -0.675,-0.2625 -0.3375,-0.1875 -0.6,-0.45 -0.2625,-0.2625 -0.3375,-0.5625 -0.075,-1.3875 -0.15,-2.325 -0.038,-0.9375 -0.038,-2.1375 v -0.7125 q 0,-0.1875 0,-0.6375 0.038,-0.45 0.075,-0.9375 0.037,-0.525 0.037,-0.975 0.038,-0.45 0.075,-0.6375 0.038,-0.075 0.1875,-0.2625 0.15,-0.225 0.3,-0.4125 0.1875,-0.225 0.3375,-0.4125 0.15,-0.225 0.1875,-0.3 0.1875,-0.1875 0.3375,-0.4125 0.15,-0.225 0.45,-0.225 0.1875,0 0.4875,0.225 0.3,0.225 0.675,0.4875 0.4125,0.225 0.8625,0.45 0.45,0.225 0.9375,0.225 0.7875,0 1.425,-0.375 0.675,-0.4125 1.125,-1.05 0.4875,-0.6375 0.75,-1.3875 0.3,-0.75 0.3,-1.5 -0.2625,0 -0.45,0.1875 -0.15,0.1875 -0.3,0.4125 -0.15,0.1875 -0.375,0.375 -0.1875,0.1875 -0.4875,0.1875 -0.5625,0 -0.9375,-0.2625 -0.3375,-0.2625 -0.5625,-0.5625 -0.225,-0.3375 -0.375,-0.6 -0.15,-0.2625 -0.3375,-0.2625 h -0.15 q -0.975,1.125 -2.1375,2.0625 -1.125,0.9375 -2.1375,2.025 l -0.1125,0.038 q -0.1875,0 -0.6,-0.675 -0.375,-0.675 -0.9375,-1.4625 -0.5625,-0.825 -1.3125,-1.5 -0.7125,-0.675 -1.5375,-0.675 -0.225,0 -0.75,0.4875 -0.4875,0.45 -1.0875,1.0875 -0.6,0.6 -1.1625,1.2375 -0.5625,0.6 -0.8625,0.8625 -0.225,0.1875 -0.3375,0.2625 -0.1125,0.075 -0.1125,0.3375 0,0.3 0.225,0.3 0.1125,0 0.375,-0.1875 0.3,-0.1875 0.675,-0.4125 0.375,-0.225 0.7875,-0.4125 0.4125,-0.1875 0.7875,-0.1875 h 0.225 q 1.2375,0.5625 1.575,1.5375 0.3375,0.975 0.375,2.2875 v 2.925 2.9625 q -0.1875,0.7875 -0.7125,1.2375 -0.525,0.4125 -1.0875,0.7125 -0.5625,0.2625 -1.0125,0.4125 -0.4125,0.15 -0.4125,0.375 0,0.15 0.037,0.1875 z" />
    <path
       inkscape:connector-curvature="0"
       id="path874"
       style="font-style:normal;font-variant:normal;font-weight:normal;font-stretch:normal;font-size:medium;line-height:1.25;font-family:'Teutonic No1';-inkscape-font-specification:'Teutonic No1';letter-spacing:0px;word-spacing:0px;fill:#530c10;fill-opacity:1;stroke:none;stroke-width:0.9375"
       d="m -1089.321,-2052.0712 q 0.225,1.425 0.2625,2.85 0.038,1.425 0,2.85 -0.037,1.425 -0.075,2.85 0,1.4625 0.1125,2.8875 0.037,0 0.037,0 0.038,0.038 0.038,0.038 0.037,0 0.037,-0.038 0.037,0 0.037,0 0.15,-0.2625 0.2625,-0.7125 0.1125,-0.4125 0.1875,-0.9 0.1125,-0.4875 0.1875,-0.9375 0.075,-0.4125 0.15,-0.6375 0.1875,-0.675 0.8625,-1.0125 0.7125,-0.3 1.2375,-0.525 0.075,-0.037 0.1875,-0.1125 0.15,-0.038 0.15,-0.038 v -5.3625 q 0,-0.1125 0.1125,-0.1125 0.1125,-0.037 0.1875,-0.037 l 0.15,0.037 q 0.15,0.038 0.4875,0.1875 0.375,0.15 0.7875,0.3375 0.4125,0.15 0.7875,0.3 0.375,0.15 0.525,0.1875 0.4125,0.225 0.45,0.3 0.075,0.075 0.4125,0.075 0.1125,0 0.2625,-0.15 0.15,-0.15 0.2625,-0.3375 0.15,-0.1875 0.2625,-0.375 0.1125,-0.1875 0.15,-0.2625 0.1875,-0.1875 0.6,-0.5625 0.4125,-0.4125 0.4875,-0.4875 0.3,-0.225 0.75,-0.4875 0.45,-0.3 0.9,-0.6375 0.4875,-0.3375 0.9375,-0.675 0.45,-0.3375 0.7875,-0.675 1.2375,-1.2375 1.9875,-2.925 0.75,-1.725 0.75,-3.525 0,-1.5 -0.3375,-2.5125 -0.3375,-1.05 -0.975,-1.8375 -0.6,-0.7875 -1.5,-1.4625 -0.8625,-0.7125 -1.9125,-1.575 -0.1875,-0.15 -0.2625,-0.375 -0.075,-0.2625 -0.375,-0.2625 0,0 -0.075,0 -0.037,0 -0.037,0.037 -0.5625,0.6 -1.3125,1.2 -0.75,0.6 -1.575,1.1625 -0.825,0.5625 -1.65,1.125 -0.7875,0.525 -1.425,1.05 -0.1875,0.15 -0.15,0.1875 0.037,0 -0.15,0 -0.225,0 -0.4125,-0.1875 -0.15,-0.225 -0.2625,-0.45 -0.1125,-0.2625 -0.1875,-0.525 -0.038,-0.2625 -0.075,-0.375 -0.4125,-1.0875 -1.2375,-1.875 -0.7875,-0.825 -1.8,-1.3125 -0.038,0 -0.15,0 -0.075,-0.037 -0.075,-0.037 -0.1875,0 -0.2625,0.037 -0.037,0 -0.1125,0.15 -0.825,1.0875 -1.8,1.8375 -0.9375,0.75 -2.025,1.65 -0.1875,0.3 -0.1875,0.5625 0.3375,0 0.6,-0.1125 0.2625,-0.15 0.525,-0.3 0.2625,-0.1875 0.525,-0.3 0.2625,-0.15 0.6,-0.15 0.375,0 0.7875,0.225 0.4125,0.1875 0.75,0.525 0.3375,0.3375 0.5625,0.75 0.2625,0.4125 0.2625,0.7875 0,0.3375 0,1.2 0.037,0.825 0.075,1.8 0.038,0.9375 0.038,1.8 0.037,0.825 0.037,1.1625 v 0.825 0.825 q -0.4125,0.525 -1.125,1.0125 -0.675,0.4875 -1.3875,1.05 -0.675,0.525 -1.2,1.1625 -0.4875,0.6375 -0.4875,1.425 0.3,0 0.525,-0.15 0.225,-0.15 0.4125,-0.375 0.1875,-0.225 0.375,-0.4125 0.225,-0.225 0.45,-0.3375 0.4125,-0.1875 0.9375,-0.225 0.525,-0.075 0.975,-0.075 h 0.075 z m 3.7875,-3.075 q 0,-0.1125 -0.037,-0.4125 0,-0.3375 -0.038,-0.675 0,-0.375 -0.037,-0.7125 0,-0.3375 0,-0.4875 v -0.2625 -0.3 q 0,-0.2625 0,-0.9 0.037,-0.675 0.037,-1.3875 0.038,-0.75 0.038,-1.3875 0.037,-0.675 0.037,-0.9375 0.037,-0.037 0.075,-0.15 0.075,-0.1125 0.1125,-0.15 0.75,-0.8625 1.575,-1.5 0.8625,-0.6375 2.0625,-0.6375 1.1625,0 2.1,0.4875 0.9375,0.4875 1.575,1.3125 0.675,0.7875 1.0125,1.8375 0.375,1.0125 0.375,2.1 0,1.9125 -0.45,3.3375 -0.4125,1.3875 -1.725,2.8125 -0.375,0.4875 -0.975,0.4875 -0.075,0 -0.225,0 -0.1125,-0.037 -0.15,-0.037 -0.15,-0.075 -0.4875,-0.225 -0.3375,-0.1875 -0.75,-0.375 -0.375,-0.1875 -0.7125,-0.3375 -0.3375,-0.1875 -0.4875,-0.2625 -0.225,-0.075 -0.6375,-0.1875 -0.4125,-0.1125 -0.8625,-0.2625 -0.45,-0.15 -0.8625,-0.3375 -0.4125,-0.225 -0.5625,-0.45 z" />
    <path
       inkscape:connector-curvature="0"
       id="path876"
       style="font-style:normal;font-variant:normal;font-weight:normal;font-stretch:normal;font-size:medium;line-height:1.25;font-family:'Teutonic No1';-inkscape-font-specification:'Teutonic No1';letter-spacing:0px;word-spacing:0px;fill:#b00017;fill-opacity:1;stroke:none;stroke-width:0.9375"
       d="m -1154.4959,-2017.3837 q 0,1.725 0.9375,3 0.9375,1.3125 2.3625,2.175 1.425,0.9 3.075,1.35 1.6875,0.45 3.15,0.45 2.625,0 4.725,-0.975 2.1,-0.9375 4.05,-2.7 0.2625,-0.225 0.7875,-0.7125 0.525,-0.4875 0.7125,-0.975 0.037,0 0.037,-0.15 h -0.3 q -0.6,0.6375 -1.3875,1.3875 -0.7875,0.75 -1.6875,1.3875 -0.9,0.6375 -1.875,1.05 -0.975,0.45 -1.95,0.45 h -4.725 q -1.125,0 -2.4375,-0.45 -1.3125,-0.45 -2.475,-1.2375 -1.1625,-0.7875 -1.95,-1.875 -0.75,-1.05 -0.75,-2.2875 0,-1.2375 0.4875,-2.1375 0.525,-0.9 1.35,-1.5 0.8625,-0.6 1.875,-0.9 1.05,-0.3 2.1375,-0.3 2.4375,0 4.5375,0.825 2.1,0.825 3.9375,2.4 0.1125,0.075 0.2625,0.3375 0.1875,0.2625 0.375,0.525 0.1875,0.2625 0.375,0.4875 0.1875,0.1875 0.3,0.1875 h 0.075 q 0.825,-0.8625 1.725,-1.6875 0.9375,-0.825 2.0625,-1.2375 0.1125,-0.037 0.375,-0.1125 0.3,-0.1125 0.375,-0.15 0.225,-0.1125 0.675,-0.3375 0.45,-0.225 0.8625,-0.45 0.45,-0.225 0.7875,-0.375 0.375,-0.1875 0.45,-0.2625 2.925,-1.65 4.65,-4.4625 1.7625,-2.8125 1.7625,-6.2625 v -0.075 q -0.038,-0.037 -0.075,-0.15 -0.037,-0.1125 -0.1125,-0.15 0.1125,-1.95 -0.3,-3.825 -0.4125,-1.875 -1.35,-3.4875 -0.9375,-1.65 -2.3625,-2.9625 -1.3875,-1.3125 -3.2625,-2.1 -0.675,-0.2625 -1.575,-0.4125 -0.9,-0.1875 -1.875,-0.3 -0.9375,-0.1125 -1.8375,-0.15 -0.9,-0.038 -1.5,-0.038 h -0.675 q -0.1875,0 -0.825,0.075 -0.6375,0.075 -1.425,0.15 -0.75,0.075 -1.425,0.15 -0.6375,0.075 -0.7875,0.075 -0.3,0.037 -0.675,0 -0.3375,-0.037 -0.675,-0.037 -0.3375,0 -0.675,0.075 -0.3,0.038 -0.525,0.2625 -0.1875,0.038 -0.6,0.075 -0.4125,0.037 -0.8625,0.1125 -0.45,0.038 -0.9,0.1125 -0.4125,0.038 -0.5625,0.038 h -0.825 q -1.0875,0 -1.95,-0.45 -0.825,-0.45 -1.35,-1.3875 h -0.3375 q 0,1.575 0.6375,2.625 0.675,1.0125 1.725,1.6125 1.05,0.6 2.3625,0.8625 1.35,0.225 2.6625,0.225 h 0.1125 q 0.075,-0.037 0.225,-0.075 0.1875,-0.037 0.225,-0.075 0.375,0 1.3125,0 0.9375,-0.037 1.9875,-0.075 1.05,-0.038 1.95,-0.038 0.9375,-0.037 1.3125,-0.037 h 1.05 q 2.625,0 4.425,0.7875 1.8375,0.75 2.9625,2.175 1.125,1.3875 1.6125,3.375 0.4875,1.9875 0.4875,4.425 0,2.7 -0.7875,5.0625 -0.75,2.325 -2.7,4.1625 -0.4875,0.4125 -1.125,0.825 -0.6375,0.375 -1.3125,0.375 h -0.1875 q -1.0125,-1.0875 -1.95,-1.8375 -0.9375,-0.7875 -1.9875,-1.275 -1.0125,-0.525 -2.2125,-0.75 -1.2,-0.2625 -2.775,-0.2625 -1.3875,0 -2.9625,0.375 -1.575,0.3375 -3.0375,1.05 -1.425,0.675 -2.5875,1.7625 -1.1625,1.05 -1.6875,2.475 -0.1125,0.3375 -0.15,1.05 0,0.7125 0,1.125 z m 10.5375,-8.85 q 0,0.3 0.2625,0.3 1.0125,0 1.95,-0.6 0.975,-0.6375 1.725,-1.575 0.7875,-0.9375 1.2375,-2.025 0.45,-1.125 0.45,-2.0625 0,-0.975 -0.2625,-1.6875 -0.2625,-0.7125 -0.7125,-1.275 -0.4125,-0.6 -1.0125,-1.1625 -0.5625,-0.5625 -1.2,-1.2375 -0.075,-0.075 -0.225,-0.225 -0.1125,-0.1875 -0.1125,-0.225 v -1.8375 q 0,-0.1875 0.1125,-0.3 0.15,-0.15 0.3,-0.3 0.15,-0.15 0.2625,-0.3 0.15,-0.15 0.15,-0.375 -0.7125,0 -1.425,0.6375 -0.675,0.6 -1.2375,1.5 -0.525,0.8625 -0.8625,1.8 -0.3375,0.9375 -0.3375,1.6125 0,1.275 0.525,2.1 0.5625,0.825 1.2375,1.5 0.675,0.675 1.2,1.3125 0.5625,0.6 0.5625,1.425 0,0.7875 -0.4125,1.3125 -0.4125,0.525 -0.9,0.8625 -0.45,0.3375 -0.8625,0.525 -0.4125,0.1875 -0.4125,0.3 z" />
    <path
       inkscape:connector-curvature="0"
       id="path878"
       style="font-style:normal;font-variant:normal;font-weight:normal;font-stretch:normal;font-size:medium;line-height:1.25;font-family:'Teutonic No1';-inkscape-font-specification:'Teutonic No1';letter-spacing:0px;word-spacing:0px;fill:#b00017;fill-opacity:1;stroke:none;stroke-width:0.9375"
       d="m -1123.8074,-2027.6212 q 0,2.5125 0.375,4.0125 0.4125,1.5 1.275,2.475 0.8625,0.975 2.25,1.6875 1.3875,0.675 3.375,1.5375 h 0.15 q 1.2,-1.2375 2.4375,-2.4 1.275,-1.2 2.5875,-2.325 0.1875,-0.1875 0.2625,-0.3 0.075,-0.15 0.075,-0.4125 -0.3375,0 -0.6,0.1875 -0.2625,0.15 -0.525,0.375 -0.2625,0.225 -0.525,0.45 -0.225,0.225 -0.525,0.3375 -0.6,0.3 -1.0875,0.3375 -0.4875,0 -1.125,0 -0.825,0 -1.6875,-0.3 -0.825,-0.3375 -1.5375,-0.9 -0.675,-0.5625 -1.125,-1.3125 -0.4125,-0.7875 -0.4125,-1.725 0,-0.3375 0.45,-0.4875 0.4875,-0.1875 1.125,-0.2625 0.6375,-0.1125 1.275,-0.1875 0.6375,-0.075 0.9375,-0.1875 0.8625,-0.3375 1.6875,-0.8625 0.825,-0.525 1.4625,-1.2 0.6375,-0.7125 1.0125,-1.5375 0.4125,-0.8625 0.4125,-1.8375 v -0.9 q -0.525,-1.4625 -1.65,-2.25 -1.125,-0.7875 -2.4375,-1.425 -0.037,-0.038 -0.1875,-0.038 -0.1875,0 -0.375,0.225 -0.15,0.1875 -0.3375,0.45 -0.15,0.2625 -0.3375,0.525 -0.15,0.225 -0.3,0.3375 -1.125,0.75 -2.2875,1.5 -1.125,0.75 -2.025,1.6875 -0.9,0.9375 -1.5,2.1 -0.5625,1.125 -0.5625,2.625 z m 5.775,-6.375 q 1.35,0 2.25,0.9 0.9375,0.8625 0.9375,2.2125 0,0.9375 -0.4875,1.6875 -0.4875,0.75 -1.2375,1.275 -0.7125,0.525 -1.6125,0.825 -0.9,0.2625 -1.725,0.2625 h -0.1125 q -0.15,-0.1125 -0.375,-0.3375 -0.225,-0.225 -0.225,-0.3 v -3.7875 q 0,-1.125 0.75,-1.9125 0.75,-0.825 1.8375,-0.825 z" />
    <path
       inkscape:connector-curvature="0"
       id="path880"
       style="font-style:normal;font-variant:normal;font-weight:normal;font-stretch:normal;font-size:medium;line-height:1.25;font-family:'Teutonic No1';-inkscape-font-specification:'Teutonic No1';letter-spacing:0px;word-spacing:0px;fill:#b00017;fill-opacity:1;stroke:none;stroke-width:0.9375"
       d="m -1109.3612,-2021.8087 q 0,0.15 0.1125,0.2625 0.15,0.075 0.3,0.1125 0.1875,0.038 0.3375,0.038 0.15,0 0.15,0 h 1.425 q 0.7125,0.037 1.7625,0.375 1.0875,0.3 2.175,0.7875 1.0875,0.45 2.025,1.0125 0.975,0.525 1.5,1.0125 h 0.9 q 0.075,-0.075 0.225,-0.225 0.1875,-0.1875 0.375,-0.375 0.1875,-0.225 0.3375,-0.375 0.1875,-0.15 0.2625,-0.225 0.037,-0.038 0.2625,-0.1875 0.2625,-0.1875 0.4875,-0.375 0.2625,-0.1875 0.4875,-0.3375 0.225,-0.15 0.3,-0.1875 0.975,-0.75 1.9875,-1.8 1.05,-1.05 1.8375,-1.8375 1.1625,-1.2375 1.575,-2.6625 0.4125,-1.4625 0.4125,-3.15 0,-1.05 -0.225,-2.175 -0.225,-1.1625 -1.0125,-1.9125 l -3.375,-3.375 h -0.3 q -0.7875,0.675 -1.65,1.2375 -0.8625,0.5625 -1.7625,1.0875 -0.8625,0.525 -1.7625,1.0875 -0.8625,0.525 -1.65,1.1625 h -0.1875 q -0.1125,0 -0.45,-0.75 -0.3,-0.7875 -0.825,-1.6875 -0.4875,-0.9375 -1.2,-1.6875 -0.675,-0.7875 -1.5375,-0.7875 -0.075,0 -0.075,0.038 l -3.975,3.675 v 0.15 q 0,0.15 0,0.3 0.038,0.15 0.225,0.15 0.225,0 0.4125,-0.15 0.225,-0.15 0.45,-0.3 0.225,-0.1875 0.45,-0.3375 0.2625,-0.15 0.525,-0.15 0.4875,0 0.8625,0.2625 0.375,0.2625 0.6375,0.675 0.2625,0.4125 0.375,0.9 0.15,0.4875 0.15,0.9 v 6.8625 q 0,0.675 -0.525,1.2 -0.525,0.525 -1.1625,0.9 -0.6,0.3375 -1.125,0.5625 -0.525,0.1875 -0.525,0.3 z m 7.05,-2.2125 v -2.7375 q 0,-0.037 -0.1125,-0.2625 -0.075,-0.2625 -0.075,-0.3375 v -0.2625 -0.3375 q 0,-0.1875 0,-0.675 0.038,-0.525 0.075,-1.0875 0.038,-0.5625 0.038,-1.05 0.037,-0.525 0.075,-0.7125 0.8625,-0.9 1.9125,-1.725 1.05,-0.825 2.4,-0.825 1.35,0 2.2875,0.7125 0.9375,0.675 1.5375,1.725 0.6,1.0125 0.8625,2.25 0.2625,1.2375 0.2625,2.325 0,1.9125 -1.05,3.3 -1.05,1.35 -2.5875,2.325 h -0.225 q -0.1125,0 -0.975,-0.375 -0.825,-0.4125 -1.8375,-0.8625 -0.975,-0.4875 -1.8,-0.9 -0.7875,-0.4125 -0.7875,-0.4875 z" />
    <g
       id="g870"
       inkscape:export-xdpi="348.32016"
       inkscape:export-ydpi="348.32016">
      <path
         inkscape:connector-curvature="0"
         id="path842"
         d="m -1022.0525,-2029.3806 a 12.919163,12.919163 0 0 1 -12.9192,12.9191 12.919163,12.919163 0 0 1 -12.9191,-12.9191 12.919163,12.919163 0 0 1 12.9191,-12.9192 12.919163,12.919163 0 0 1 12.9192,12.9192 z"
         style="opacity:1;fill:#ffffff;fill-opacity:1;stroke:none;stroke-width:2.87893701;stroke-linecap:square;stroke-linejoin:round;stroke-miterlimit:4;stroke-dasharray:none;stroke-opacity:1;paint-order:markers stroke fill" />
      <g
         transform="matrix(0.125,0,0,0.125,-1051.9643,-1839.4223)"
         inkscape:export-ydpi="121.82741"
         inkscape:export-xdpi="121.82741"
         id="text837"
         style="font-style:normal;font-weight:normal;font-size:150px;line-height:1.25;font-family:sans-serif;letter-spacing:0px;word-spacing:0px;fill:#b00017;fill-opacity:1;stroke:none;stroke-width:3.75"
         aria-label="P">
        <path
           inkscape:connector-curvature="0"
           id="path839"
           style="font-style:normal;font-variant:normal;font-weight:normal;font-stretch:normal;font-family:'Teutonic No1';-inkscape-font-specification:'Teutonic No1';fill:#b00017;fill-opacity:1;stroke-width:3.75"
           d="m 91.315916,-1475.1918 q 0,7.8 3.75,13.35 3.9,5.55 9.900004,9.15 6,3.6 13.2,5.25 7.2,1.65 13.95,1.65 5.55,0 10.8,-1.65 5.25,-1.5 9.9,-4.35 4.8,-2.7 8.85,-6.45 4.2,-3.6 7.8,-7.8 1.5,-1.65 3.45,-3.45 2.1,-1.8 2.1,-4.35 h -0.75 q -0.15,0 -1.8,1.65 -1.5,1.65 -2.55,2.55 -3.9,4.35 -7.95,7.95 -4.05,3.6 -9.6,6.15 -2.85,1.2 -6,1.8 -3.15,0.6 -6.15,1.8 -0.45,0 -1.65,0 -1.05,0 -2.4,0 -1.2,0.15 -2.4,0.15 -1.2,0 -1.65,0 -0.75,0 -2.1,0 -1.2,0 -2.4,-0.15 -1.2,0 -2.25,0 -0.9,0 -1.05,0 -0.75,0 -2.55,-0.3 -1.8,-0.3 -3.9,-0.6 -1.95,-0.3 -3.9,-0.6 -1.8,-0.15 -2.55,-0.3 -3.3,-1.05 -6.6,-2.85 -3.15,-1.8 -5.850004,-4.2 -2.55,-2.4 -4.2,-5.55 -1.65,-3 -1.65,-6.9 0,-1.5 0,-3.3 0.15,-1.95 0.75,-3.45 1.35,-3.3 4.35,-5.7 3.150004,-2.4 6.900004,-3.9 3.75,-1.65 7.65,-2.4 4.05,-0.75 7.2,-0.75 6,0 11.25,1.65 5.4,1.5 10.8,3.9 1.8,0.75 4.2,2.85 2.55,2.1 4.8,4.35 2.4,2.1 4.05,3.9 1.8,1.65 2.1,1.65 h 0.75 q 0.6,-0.6 2.1,-2.1 1.65,-1.65 3.3,-3.3 1.8,-1.8 3.3,-3.3 1.5,-1.65 2.25,-2.25 1.2,-1.2 3.9,-3.15 2.85,-1.95 5.55,-3.9 2.85,-2.1 4.95,-3.9 2.25,-1.8 2.25,-3 -1.5,0 -3.3,1.05 -1.8,0.9 -3.6,2.25 -1.65,1.2 -3.3,2.55 -1.65,1.35 -2.85,1.95 h -0.3 -0.15 q -0.3,0 -0.45,-0.3 -0.15,-0.3 -0.3,-0.3 0,-0.75 -0.15,-2.7 0,-2.1 -0.15,-4.35 -0.15,-2.25 -0.3,-4.2 0,-1.95 0,-2.7 v -2.25 q 0,-1.2 0.45,-2.1 0.6,-0.9 1.2,-1.8 0.6,-0.9 1.05,-1.8 0.6,-0.9 0.6,-2.1 0,-1.65 -0.45,-2.7 -0.3,-1.2 -2.25,-2.1 v -9 l 0.75,-0.6 q 0.45,0 1.95,0.15 1.5,0 3.15,0 1.65,0 3,0 1.5,-0.15 2.1,-0.15 4.2,-0.45 8.55,-3.3 4.5,-2.85 7.95,-6.9 3.45,-4.05 5.7,-8.7 2.25,-4.65 2.25,-8.85 0,-5.85 -2.85,-10.35 -2.7,-4.5 -7.05,-8.25 -2.25,-1.95 -4.2,-3.3 -1.95,-1.5 -1.95,-4.95 0,-1.95 0.75,-2.85 0.9,-1.05 1.8,-1.8 0.9,-0.75 1.65,-1.5 0.9,-0.75 0.9,-2.25 -2.55,0 -4.95,1.2 -2.4,1.05 -4.95,1.95 -9.6,4.05 -17.85,9.75 -8.25,5.7 -16.2,12.9 h -0.75 q -0.3,0 -1.65,-1.65 -1.35,-1.8 -3,-4.05 -1.65,-2.25 -3.3,-4.35 -1.65,-2.1 -2.25,-2.7 -2.25,-1.95 -5.25,-3.45 -2.85,-1.65 -6,-2.55 -3.15,-1.05 -6.45,-1.5 -3.15,-0.6 -6,-0.6 -7.2,0 -14.25,1.05 -6.900004,1.05 -13.950004,2.25 -3,0.3 -5.25,1.05 -2.25,0.75 -5.7,0.75 h -4.8 q -3.45,-0.45 -4.95,-3.3 -1.5,-2.85 -1.8,-5.85 h -0.3 -0.3 l -0.6,0.45 v 3.15 q 0,4.35 1.35,8.25 1.5,3.75 4.2,6.75 2.7,2.85 6.3,4.65 3.75,1.65 8.25,1.65 7.2,0 13.8,-0.75 6.750004,-0.75 13.650004,-0.45 0.6,-0.6 1.2,-0.6 0.75,-0.15 1.5,-0.15 2.4,0 5.25,0.9 2.85,0.75 4.8,2.4 7.35,6.15 10.05,13.35 2.85,7.2 2.85,16.65 0,12.75 -6.9,19.05 -6.75,6.3 -19.5,6.3 -2.1,0 -4.5,-0.75 -2.25,-0.9 -4.35,-2.25 -2.1,-1.5 -3.450004,-3.3 -1.35,-1.95 -1.35,-4.05 h 10.050004 q 1.35,0 2.55,-0.9 1.35,-0.9 2.25,-2.1 1.05,-1.35 1.5,-2.85 0.6,-1.5 0.6,-2.7 0,-5.1 -3,-7.65 -2.85,-2.7 -7.8,-2.7 -6.150004,0 -9.150004,3.45 -2.85,3.3 -2.85,9.3 0,3.9 1.8,7.35 1.8,3.3 4.65,6 3.000004,2.55 6.600004,4.05 3.75,1.5 7.5,1.5 10.05,0 17.55,-3 7.5,-3 12.45,-8.4 5.1,-5.55 7.5,-13.35 2.55,-7.8 2.55,-17.55 v -7.5 q -1.35,-2.25 -1.35,-4.35 v -1.35 q 1.95,-2.1 4.65,-4.65 2.85,-2.7 5.1,-4.5 0.6,-0.45 1.65,-1.05 1.05,-0.75 1.95,-1.35 1.05,-0.75 1.8,-1.2 0.75,-0.45 0.75,-0.45 h 0.45 v 17.55 q 0.75,0.45 0.75,1.35 0,2.4 -1.65,3.9 -1.5,1.35 -3.3,2.85 -1.8,1.35 -3.45,3.3 -1.5,1.8 -1.5,4.95 0,2.55 1.5,4.8 1.65,2.1 3.45,3.9 1.8,1.65 3.3,2.7 1.65,0.9 1.65,0.9 v 10.2 q -0.6,0.45 -1.8,1.95 -1.05,1.35 -1.2,1.95 0,0 -0.15,0.6 0,0.6 0,0.9 0,1.2 0.15,1.8 0.15,0.6 0.45,0.9 0.45,0.3 0.9,0.75 0.45,0.3 0.9,1.05 1.2,3 1.35,5.55 0.15,2.4 0.15,5.55 0,0.3 0,1.05 0,0.75 -0.15,1.65 0,0.9 0,1.65 0,0.75 0,1.05 -0.15,0.3 -0.45,1.35 -0.3,1.05 -1.05,1.05 h -0.3 q -6,-4.5 -11.4,-7.2 -5.25,-2.85 -12.45,-4.95 h -7.35 q -6.6,0 -13.35,1.35 -6.75,1.35 -12.9,4.35 -6,2.85 -10.950004,7.5 -4.95,4.65 -7.8,11.1 0,0.6 -0.15,2.4 0,1.8 0,2.4 z m 79.950004,-59.55 q 1.05,-1.65 2.55,-2.25 1.5,-0.75 2.85,-1.5 1.35,-0.9 2.25,-2.25 0.9,-1.5 0.9,-4.8 0,-2.85 -1.5,-4.65 -1.35,-1.95 -3.15,-3 -1.65,-1.2 -3.15,-1.95 -1.35,-0.75 -1.35,-1.5 v -22.8 q 0,-0.45 1.65,-1.5 1.8,-1.05 3.9,-2.1 2.25,-1.2 4.2,-2.1 1.95,-0.9 2.55,-0.9 h 1.05 q -1.5,3.15 -3,6.75 -1.35,3.45 -1.35,6.9 0,5.1 1.95,8.55 2.1,3.45 4.5,6.45 2.55,2.85 4.5,5.85 2.1,3 2.1,7.05 0,3.15 -1.5,5.4 -1.35,2.1 -3.6,3.45 -2.25,1.35 -4.95,2.1 -2.7,0.6 -5.25,0.6 -1.65,0 -3.45,0 -1.8,-0.15 -2.7,-1.8 z" />
      </g>
    </g>
    <g
       id="g885"
       transform="translate(1054.2036,285.2551)"
       inkscape:export-xdpi="300"
       inkscape:export-ydpi="300">
      <circle
         inkscape:export-ydpi="135.33995"
         inkscape:export-xdpi="135.33995"
         r="33.249622"
         cy="-2193.4526"
         cx="-2277.2678"
         id="path846"
         style="opacity:1;fill:#ffffff;fill-opacity:1;stroke:none;stroke-width:10.58489227;stroke-linecap:square;stroke-linejoin:round;stroke-miterlimit:4;stroke-dasharray:none;stroke-opacity:1;paint-order:markers stroke fill" />
      <g
         inkscape:export-ydpi="135.33995"
         inkscape:export-xdpi="135.33995"
         transform="matrix(0.125,0,0,0.125,-2176.9013,-1952.99)"
         id="g844">
        <text
           id="text838"
           y="-1757.6226"
           x="-949.04883"
           style="font-style:normal;font-weight:normal;font-size:106.04399872px;line-height:1.25;font-family:sans-serif;letter-spacing:0px;word-spacing:0px;fill:#b00017;fill-opacity:1;stroke:none;stroke-width:2.65109777"
           xml:space="preserve"><tspan
             style="font-style:normal;font-variant:normal;font-weight:normal;font-stretch:normal;font-family:Arvo;-inkscape-font-specification:Arvo;fill:#b00017;fill-opacity:1;stroke-width:2.65109777"
             y="-1757.6226"
             x="-949.04883"
             id="tspan836"
             sodipodi:role="line">&lt;/&gt;</tspan></text>
        <g
           style="font-style:normal;font-weight:normal;font-size:416.25px;line-height:125%;font-family:Sans;letter-spacing:0px;word-spacing:0px;fill:#333333;fill-opacity:1;stroke:none;stroke-width:1px;stroke-linecap:butt;stroke-linejoin:miter;stroke-opacity:1"
           id="g842"
           transform="translate(226.463,-2293.8022)">
          <path
             sodipodi:nodetypes="cccccccccccccccccccccccccccccccccc"
             inkscape:connector-curvature="0"
             id="path840"
             d="m -1192.1476,496.73208 c -0.7286,33.26286 29.0377,56.94121 57.3775,67.97883 41.3443,16.76037 90.672,10.82124 126.4944,-15.98335 10.03743,-8.98497 38.09793,-25.50601 33.16811,-35.76173 -21.41283,21.59157 -46.34681,46.79666 -78.86791,47.4525 -22.2489,-0.669 -44.744,1.67644 -66.7657,-1.95117 -27.8452,-7.12598 -57.8124,-23.99431 -66.9057,-52.97432 -6.6231,-25.12433 10.5681,-50.85993 34.5228,-58.50264 43.1566,-14.25028 91.8916,2.26553 124.6668,31.94719 5.4251,11.33011 15.3641,22.57607 23.4141,6.24375 11.5745,-13.50656 27.3471,-21.63575 43.82366,-27.32308 28.47377,-13.12818 56.82482,-29.60056 74.59946,-56.33666 16.27997,-22.4896 23.85793,-110.70542 18.55239,-126.327 -11.64941,-49.07366 -52.69637,-93.66079 -104.50801,-98.7667 -30.5234,-5.10066 -61.617,-4.23387 -92.1473,0.20813 -20.6314,0.30856 -39.5808,3.11796 -59.5758,6.89414 -20.1559,2.96861 -46.2217,3.7163 -58.0149,-16.44838 -12.634,-7.39757 -0.5337,30.03007 8.0258,34.40567 17.9818,18.54563 93.9751,21.61381 105.8446,19.89544 38.2768,0.091 80.08014,-7.1661 114.71104,13.63544 32.94834,18.93239 43.20923,59.34909 44.02819,94.8172 2.14702,43.67111 -9.33197,93.27614 -47.57445,119.23611 -22.03435,20.0561 -34.17677,-14.01879 -52.44748,-21.85312 -42.3876,-26.52343 -98.4519,-20.84603 -141.0307,2.36742 -22.066,12.69586 -44.278,34.46875 -41.3909,62.02343 z m 116.9663,-98.235 c 15.0517,9.83055 35.9707,-10.87815 45.833,-23.44008 18.2575,-21.67026 24.0176,-56.7303 3.3625,-78.9314 -7.7242,-10.19179 -18.9156,-17.68872 -25.8855,-28.33102 0.6809,-7.83773 12.3813,-39.61001 -0.7285,-31.78459 -18.8856,13.20356 -30.6932,36.14953 -32.9878,58.84084 -1.897,26.48685 23.9578,40.36003 36.6886,59.87496 10.3771,20.68099 -11.0745,35.11467 -26.2823,43.77129 z"
             style="font-style:normal;font-variant:normal;font-weight:600;font-stretch:normal;font-size:416.25px;font-family:'Teutonic No1';-inkscape-font-specification:'Teutonic No1 Semi-Bold';fill:#530c10;fill-opacity:1" />
        </g>
      </g>
    </g>
    <path
       style="fill:none;stroke:#000000;stroke-width:0.9375px;stroke-linecap:butt;stroke-linejoin:miter;stroke-opacity:1"
       d="m -1064.757,-2222.0354 -9.1352,-40.195 -61.3888,-17.1742"
       id="path877"
       inkscape:connector-curvature="0" />
    <path
       style="fill:none;stroke:#000000;stroke-width:0.9375px;stroke-linecap:butt;stroke-linejoin:miter;stroke-opacity:1"
       d="m -1055.2564,-2227.1511 -14.2509,-47.5032 -65.0429,-17.5396"
       id="path879"
       inkscape:connector-curvature="0" />
  </g>
</svg>
