<?xml version="1.0" encoding="UTF-8" standalone="no"?>
<!-- Created with Inkscape (http://www.inkscape.org/) -->

<svg
   xmlns:dc="http://purl.org/dc/elements/1.1/"
   xmlns:cc="http://creativecommons.org/ns#"
   xmlns:rdf="http://www.w3.org/1999/02/22-rdf-syntax-ns#"
   xmlns:svg="http://www.w3.org/2000/svg"
   xmlns="http://www.w3.org/2000/svg"
   xmlns:sodipodi="http://sodipodi.sourceforge.net/DTD/sodipodi-0.dtd"
   xmlns:inkscape="http://www.inkscape.org/namespaces/inkscape"
   width="112.86066mm"
   height="77.088997mm"
   viewBox="0 0 399.9 273.14999"
   id="svg2"
   version="1.1"
   inkscape:version="0.92.2 (unknown)"
   sodipodi:docname="dcorpdev2.svg">
  <defs
     id="defs4" />
  <sodipodi:namedview
     id="base"
     pagecolor="#ffffff"
     bordercolor="#666666"
     borderopacity="1.0"
     inkscape:pageopacity="0.0"
     inkscape:pageshadow="2"
     inkscape:zoom="0.2267707"
     inkscape:cx="124.18763"
     inkscape:cy="-18.245454"
     inkscape:document-units="px"
     inkscape:current-layer="layer1"
     showgrid="false"
     fit-margin-top="0"
     fit-margin-left="0"
     fit-margin-right="0"
     fit-margin-bottom="0"
     inkscape:window-width="1366"
     inkscape:window-height="716"
     inkscape:window-x="0"
     inkscape:window-y="0"
     inkscape:window-maximized="1" />
  <metadata
     id="metadata7">
    <rdf:RDF>
      <cc:Work
         rdf:about="">
        <dc:format>image/svg+xml</dc:format>
        <dc:type
           rdf:resource="http://purl.org/dc/dcmitype/StillImage" />
        <dc:title></dc:title>
      </cc:Work>
    </rdf:RDF>
  </metadata>
  <g
     inkscape:label="Layer 1"
     inkscape:groupmode="layer"
     id="layer1"
     transform="translate(604.20702,2168.7251)">
    <g
       id="g989">
      <g
         style="fill:#530c10;fill-opacity:1"
         id="g896">
        <path
           inkscape:connector-curvature="0"
           id="path866"
           style="font-style:normal;font-variant:normal;font-weight:normal;font-stretch:normal;font-size:medium;line-height:1.25;font-family:'Teutonic No1';-inkscape-font-specification:'Teutonic No1';letter-spacing:0px;word-spacing:0px;fill:#530c10;fill-opacity:1;stroke:none;stroke-width:3.75"
           d="m -604.20702,-2049.0251 q 0,6.9 3.75,12 3.75,5.25 9.45,8.7 5.7,3.6 12.3,5.4 6.75,1.8 12.6,1.8 10.5,0 18.9,-3.9 8.4,-3.75 16.2,-10.8 1.05,-0.9 3.15,-2.85 2.1,-1.95 2.85,-3.9 0.15,0 0.15,-0.6 h -1.2 q -2.4,2.55 -5.55,5.55 -3.15,3 -6.75,5.55 -3.6,2.55 -7.5,4.2 -3.9,1.8 -7.8,1.8 h -18.9 q -4.5,0 -9.75,-1.8 -5.25,-1.8 -9.9,-4.95 -4.65,-3.15 -7.8,-7.5 -3,-4.2 -3,-9.15 0,-4.95 1.95,-8.55 2.1,-3.6 5.4,-6 3.45,-2.4 7.5,-3.6 4.2,-1.2 8.55,-1.2 9.75,0 18.15,3.3 8.4,3.3 15.75,9.6 0.45,0.3 1.05,1.35 0.75,1.05 1.5,2.1 0.75,1.05 1.5,1.95 0.75,0.75 1.2,0.75 h 0.3 q 3.3,-3.45 6.9,-6.75 3.75,-3.3 8.25,-4.95 0.45,-0.15 1.5,-0.45 1.2,-0.45 1.5,-0.6 0.9,-0.45 2.7,-1.35 1.8,-0.9 3.45,-1.8 1.8,-0.9 3.15,-1.5 1.5,-0.75 1.8,-1.05 11.7,-6.6 18.6,-17.85 7.05,-11.25 7.05,-25.05 v -0.3 q -0.15,-0.15 -0.3,-0.6 -0.15,-0.45 -0.45,-0.6 0.45,-7.8 -1.2,-15.3 -1.65,-7.5 -5.4,-13.95 -3.75,-6.6 -9.45,-11.85 -5.55,-5.25 -13.05,-8.4 -2.7,-1.05 -6.3,-1.65 -3.6,-0.75 -7.5,-1.2 -3.75,-0.45 -7.35,-0.6 -3.6,-0.15 -6,-0.15 h -2.7 q -0.75,0 -3.3,0.3 -2.55,0.3 -5.7,0.6 -3,0.3 -5.7,0.6 -2.55,0.3 -3.15,0.3 -1.2,0.15 -2.7,0 -1.35,-0.15 -2.7,-0.15 -1.35,0 -2.7,0.3 -1.2,0.15 -2.1,1.05 -0.75,0.15 -2.4,0.3 -1.65,0.15 -3.45,0.45 -1.8,0.15 -3.6,0.45 -1.65,0.15 -2.25,0.15 h -3.3 q -4.35,0 -7.8,-1.8 -3.3,-1.8 -5.4,-5.55 h -1.35 q 0,6.3 2.55,10.5 2.7,4.05 6.9,6.45 4.2,2.4 9.45,3.45 5.4,0.9 10.65,0.9 h 0.45 q 0.3,-0.15 0.9,-0.3 0.75,-0.15 0.9,-0.3 1.5,0 5.25,0 3.75,-0.15 7.95,-0.3 4.2,-0.15 7.8,-0.15 3.75,-0.15 5.25,-0.15 h 4.2 q 10.5,0 17.7,3.15 7.35,3 11.85,8.7 4.5,5.55 6.45,13.5 1.95,7.95 1.95,17.7 0,10.8 -3.15,20.25 -3,9.3 -10.8,16.65 -1.95,1.65 -4.5,3.3 -2.55,1.5 -5.25,1.5 h -0.75 q -4.05,-4.35 -7.8,-7.35 -3.75,-3.15 -7.95,-5.1 -4.05,-2.1 -8.85,-3 -4.8,-1.05 -11.1,-1.05 -5.55,0 -11.85,1.5 -6.3,1.35 -12.15,4.2 -5.7,2.7 -10.35,7.05 -4.65,4.2 -6.75,9.9 -0.45,1.35 -0.6,4.2 0,2.85 0,4.5 z m 42.15,-35.4 q 0,1.2 1.05,1.2 4.05,0 7.8,-2.4 3.9,-2.55 6.9,-6.3 3.15,-3.75 4.95,-8.1 1.8,-4.5 1.8,-8.25 0,-3.9 -1.05,-6.75 -1.05,-2.85 -2.85,-5.1 -1.65,-2.4 -4.05,-4.65 -2.25,-2.25 -4.8,-4.95 -0.3,-0.3 -0.9,-0.9 -0.45,-0.75 -0.45,-0.9 v -7.35 q 0,-0.75 0.45,-1.2 0.6,-0.6 1.2,-1.2 0.6,-0.6 1.05,-1.2 0.6,-0.6 0.6,-1.5 -2.85,0 -5.7,2.55 -2.7,2.4 -4.95,6 -2.1,3.45 -3.45,7.2 -1.35,3.75 -1.35,6.45 0,5.1 2.1,8.4 2.25,3.3 4.95,6 2.7,2.7 4.8,5.25 2.25,2.4 2.25,5.7 0,3.15 -1.65,5.25 -1.65,2.1 -3.6,3.45 -1.8,1.35 -3.45,2.1 -1.65,0.75 -1.65,1.2 z" />
        <path
           inkscape:connector-curvature="0"
           id="path868"
           style="font-style:normal;font-variant:normal;font-weight:normal;font-stretch:normal;font-size:medium;line-height:1.25;font-family:'Teutonic No1';-inkscape-font-specification:'Teutonic No1';letter-spacing:0px;word-spacing:0px;fill:#530c10;fill-opacity:1;stroke:none;stroke-width:3.75"
           d="m -481.45311,-2089.2251 q 0,8.7 1.65,14.85 1.65,6.15 5.25,10.65 3.75,4.35 9.45,7.35 5.85,2.85 14.1,5.25 h 0.45 q 0.9,0 1.35,-0.45 2.7,-4.65 6.3,-7.65 3.75,-3.15 7.65,-6.45 0.45,-0.45 1.2,-1.05 0.75,-0.75 1.35,-1.35 0.75,-0.75 1.2,-1.2 0.6,-0.6 0.6,-0.75 v -1.2 h -0.75 q -2.4,1.8 -4.5,3 -1.95,1.2 -4.05,1.95 -1.95,0.6 -4.35,0.9 -2.25,0.3 -5.4,0.3 -3.15,0 -5.85,-1.5 -2.7,-1.5 -4.95,-3.75 -2.1,-2.4 -3.75,-5.1 -1.5,-2.85 -2.4,-5.55 -0.6,-1.65 -0.6,-3.9 0,-2.4 -1.2,-4.05 v -4.05 q 0,-2.55 0,-5.7 0.15,-3.15 0.6,-5.25 0.3,-1.5 1.35,-3.6 1.05,-2.1 2.55,-4.05 1.5,-1.95 3.15,-3.3 1.65,-1.35 3.3,-1.35 h 0.6 q 3.3,2.1 5.85,3.45 2.55,1.35 6.75,1.35 2.4,0 4.65,-1.5 2.25,-1.65 3.9,-3.9 1.8,-2.4 2.85,-5.1 1.05,-2.7 1.05,-4.8 -0.75,0 -1.5,0.6 -0.6,0.6 -1.2,1.5 -0.6,0.9 -1.2,1.8 -0.45,0.75 -1.05,1.2 h -2.7 q -2.4,0 -3.9,-0.9 -1.5,-0.9 -2.55,-1.8 -0.9,-1.05 -1.5,-1.95 -0.6,-0.9 -1.2,-0.9 h -0.3 q 0,0.15 -0.3,0.3 -0.15,0.15 -0.3,0.45 -2.85,3.45 -5.7,5.25 -2.85,1.8 -6.45,4.35 -3.15,2.25 -6.6,5.25 -3.45,3 -6.3,6.45 -2.85,3.45 -4.8,7.5 -1.8,4.05 -1.8,8.4 z" />
        <path
           inkscape:connector-curvature="0"
           id="path870"
           style="font-style:normal;font-variant:normal;font-weight:normal;font-stretch:normal;font-size:medium;line-height:1.25;font-family:'Teutonic No1';-inkscape-font-specification:'Teutonic No1';letter-spacing:0px;word-spacing:0px;fill:#530c10;fill-opacity:1;stroke:none;stroke-width:3.75"
           d="m -427.40389,-2085.0251 q 0,9 3.9,16.65 4.05,7.5 12.15,11.85 1.05,0.6 3,1.5 1.95,0.9 3.75,1.8 1.8,0.9 3.15,1.5 1.35,0.6 1.5,0.6 h 0.75 q 0.3,-0.3 1.2,-1.2 1.05,-0.9 2.1,-1.8 1.05,-0.9 1.95,-1.8 1.05,-0.9 1.5,-1.2 3,-2.55 6.75,-3.75 3.75,-1.35 7.2,-3.45 9,-6 13.05,-13.35 4.05,-7.35 4.05,-18.45 0,-6.15 -1.8,-10.65 -1.8,-4.65 -5.1,-8.25 -3.15,-3.6 -7.5,-6.45 -4.35,-2.85 -9.3,-5.7 -0.9,-0.45 -1.2,-0.75 -0.3,-0.3 -0.6,-0.45 -0.15,-0.15 -0.45,-0.15 -0.3,0 -1.05,0 -0.45,0 -1.5,0.75 -0.9,0.75 -1.95,1.8 -1.05,1.05 -1.95,1.95 -0.75,0.9 -1.2,1.2 -0.3,0.15 -1.05,0.6 -0.75,0.45 -1.8,1.05 -0.9,0.6 -1.8,1.2 -0.9,0.45 -1.35,0.75 -0.3,0.15 -1.35,0.75 -1.05,0.45 -2.4,1.05 -1.2,0.6 -2.25,1.2 -1.05,0.45 -1.35,0.6 -4.05,2.25 -7.5,5.55 -3.45,3.3 -6,7.35 -2.55,4.05 -4.05,8.55 -1.5,4.5 -1.5,9.15 z m 12.45,-6.9 q 0,-4.5 0.75,-8.7 0.9,-4.2 2.85,-7.5 1.95,-3.45 5.25,-5.4 3.3,-2.1 8.25,-2.1 6.9,0 11.4,3 4.65,2.85 7.35,7.5 2.7,4.65 3.75,10.5 1.2,5.85 1.2,11.55 v 6.45 q -2.25,7.35 -6,10.05 -3.75,2.7 -11.4,2.7 -5.55,0 -9.9,-2.55 -4.35,-2.55 -7.35,-6.45 -3,-4.05 -4.65,-9 -1.5,-5.1 -1.5,-10.05 z" />
        <path
           inkscape:connector-curvature="0"
           id="path872"
           style="font-style:normal;font-variant:normal;font-weight:normal;font-stretch:normal;font-size:medium;line-height:1.25;font-family:'Teutonic No1';-inkscape-font-specification:'Teutonic No1';letter-spacing:0px;word-spacing:0px;fill:#530c10;fill-opacity:1;stroke:none;stroke-width:3.75"
           d="m -350.17733,-2064.9251 q 6.3,0.45 11.4,2.55 5.25,2.1 10.35,5.85 0.3,0.3 1.05,1.05 0.75,0.75 1.65,1.65 0.9,0.9 1.65,1.65 0.9,0.6 1.5,0.6 h 0.3 l 1.8,-1.8 q 0.15,-0.15 0.6,-0.75 0.6,-0.75 1.2,-1.5 0.6,-0.75 1.05,-1.35 0.6,-0.6 0.75,-0.75 0.9,-0.75 2.85,-2.7 2.1,-2.1 4.5,-4.35 2.4,-2.25 4.5,-4.2 2.1,-1.95 3,-2.85 v -1.8 h -1.35 q -2.55,2.55 -4.8,4.35 -2.1,1.8 -5.55,1.8 -1.2,0 -2.55,-0.3 -1.35,-0.45 -2.7,-1.05 -1.35,-0.75 -2.4,-1.8 -1.05,-1.05 -1.35,-2.25 -0.3,-5.55 -0.6,-9.3 -0.15,-3.75 -0.15,-8.55 v -2.85 q 0,-0.75 0,-2.55 0.15,-1.8 0.3,-3.75 0.15,-2.1 0.15,-3.9 0.15,-1.8 0.3,-2.55 0.15,-0.3 0.75,-1.05 0.6,-0.9 1.2,-1.65 0.75,-0.9 1.35,-1.65 0.6,-0.9 0.75,-1.2 0.75,-0.75 1.35,-1.65 0.6,-0.9 1.8,-0.9 0.75,0 1.95,0.9 1.2,0.9 2.7,1.95 1.65,0.9 3.45,1.8 1.8,0.9 3.75,0.9 3.15,0 5.7,-1.5 2.7,-1.65 4.5,-4.2 1.95,-2.55 3,-5.55 1.2,-3 1.2,-6 -1.05,0 -1.8,0.75 -0.6,0.75 -1.2,1.65 -0.6,0.75 -1.5,1.5 -0.75,0.75 -1.95,0.75 -2.25,0 -3.75,-1.05 -1.35,-1.05 -2.25,-2.25 -0.9,-1.35 -1.5,-2.4 -0.6,-1.05 -1.35,-1.05 h -0.6 q -3.9,4.5 -8.55,8.25 -4.5,3.75 -8.55,8.1 l -0.45,0.15 q -0.75,0 -2.4,-2.7 -1.5,-2.7 -3.75,-5.85 -2.25,-3.3 -5.25,-6 -2.85,-2.7 -6.15,-2.7 -0.9,0 -3,1.95 -1.95,1.8 -4.35,4.35 -2.4,2.4 -4.65,4.95 -2.25,2.4 -3.45,3.45 -0.9,0.75 -1.35,1.05 -0.45,0.3 -0.45,1.35 0,1.2 0.9,1.2 0.45,0 1.5,-0.75 1.2,-0.75 2.7,-1.65 1.5,-0.9 3.15,-1.65 1.65,-0.75 3.15,-0.75 h 0.9 q 4.95,2.25 6.3,6.15 1.35,3.9 1.5,9.15 v 11.7 11.85 q -0.75,3.15 -2.85,4.95 -2.1,1.65 -4.35,2.85 -2.25,1.05 -4.05,1.65 -1.65,0.6 -1.65,1.5 0,0.6 0.15,0.75 z" />
        <path
           inkscape:connector-curvature="0"
           id="path874"
           style="font-style:normal;font-variant:normal;font-weight:normal;font-stretch:normal;font-size:medium;line-height:1.25;font-family:'Teutonic No1';-inkscape-font-specification:'Teutonic No1';letter-spacing:0px;word-spacing:0px;fill:#530c10;fill-opacity:1;stroke:none;stroke-width:3.75"
           d="m -267.15702,-2062.2251 q 0.9,5.7 1.05,11.4 0.15,5.7 0,11.4 -0.15,5.7 -0.3,11.4 0,5.85 0.45,11.55 0.15,0 0.15,0 0.15,0.15 0.15,0.15 0.15,0 0.15,-0.15 0.15,0 0.15,0 0.6,-1.05 1.05,-2.85 0.45,-1.65 0.75,-3.6 0.45,-1.95 0.75,-3.75 0.3,-1.65 0.6,-2.55 0.75,-2.7 3.45,-4.05 2.85,-1.2 4.95,-2.1 0.3,-0.15 0.75,-0.45 0.6,-0.15 0.6,-0.15 v -21.45 q 0,-0.45 0.45,-0.45 0.45,-0.15 0.75,-0.15 l 0.6,0.15 q 0.6,0.15 1.95,0.75 1.5,0.6 3.15,1.35 1.65,0.6 3.15,1.2 1.5,0.6 2.1,0.75 1.65,0.9 1.8,1.2 0.3,0.3 1.65,0.3 0.45,0 1.05,-0.6 0.6,-0.6 1.05,-1.35 0.6,-0.75 1.05,-1.5 0.45,-0.75 0.6,-1.05 0.75,-0.75 2.4,-2.25 1.65,-1.65 1.95,-1.95 1.2,-0.9 3,-1.95 1.8,-1.2 3.6,-2.55 1.95,-1.35 3.75,-2.7 1.8,-1.35 3.15,-2.7 4.95,-4.95 7.95,-11.7 3,-6.9 3,-14.1 0,-6 -1.35,-10.05 -1.35,-4.2 -3.9,-7.35 -2.4,-3.15 -6,-5.85 -3.45,-2.85 -7.65,-6.3 -0.75,-0.6 -1.05,-1.5 -0.3,-1.05 -1.5,-1.05 0,0 -0.3,0 -0.15,0 -0.15,0.15 -2.25,2.4 -5.25,4.8 -3,2.4 -6.3,4.65 -3.3,2.25 -6.6,4.5 -3.15,2.1 -5.7,4.2 -0.75,0.6 -0.6,0.75 0.15,0 -0.6,0 -0.9,0 -1.65,-0.75 -0.6,-0.9 -1.05,-1.8 -0.45,-1.05 -0.75,-2.1 -0.15,-1.05 -0.3,-1.5 -1.65,-4.35 -4.95,-7.5 -3.15,-3.3 -7.2,-5.25 -0.15,0 -0.6,0 -0.3,-0.15 -0.3,-0.15 -0.75,0 -1.05,0.15 -0.15,0 -0.45,0.6 -3.3,4.35 -7.2,7.35 -3.75,3 -8.1,6.6 -0.75,1.2 -0.75,2.25 1.35,0 2.4,-0.45 1.05,-0.6 2.1,-1.2 1.05,-0.75 2.1,-1.2 1.05,-0.6 2.4,-0.6 1.5,0 3.15,0.9 1.65,0.75 3,2.1 1.35,1.35 2.25,3 1.05,1.65 1.05,3.15 0,1.35 0,4.8 0.15,3.3 0.3,7.2 0.15,3.75 0.15,7.2 0.15,3.3 0.15,4.65 v 3.3 3.3 q -1.65,2.1 -4.5,4.05 -2.7,1.95 -5.55,4.2 -2.7,2.1 -4.8,4.65 -1.95,2.55 -1.95,5.7 1.2,0 2.1,-0.6 0.9,-0.6 1.65,-1.5 0.75,-0.9 1.5,-1.65 0.9,-0.9 1.8,-1.35 1.65,-0.75 3.75,-0.9 2.1,-0.3 3.9,-0.3 h 0.3 z m 15.15,-12.3 q 0,-0.45 -0.15,-1.65 0,-1.35 -0.15,-2.7 0,-1.5 -0.15,-2.85 0,-1.35 0,-1.95 v -1.05 -1.2 q 0,-1.05 0,-3.6 0.15,-2.7 0.15,-5.55 0.15,-3 0.15,-5.55 0.15,-2.7 0.15,-3.75 0.15,-0.15 0.3,-0.6 0.3,-0.45 0.45,-0.6 3,-3.45 6.3,-6 3.45,-2.55 8.25,-2.55 4.65,0 8.4,1.95 3.75,1.95 6.3,5.25 2.7,3.15 4.05,7.35 1.5,4.05 1.5,8.4 0,7.65 -1.8,13.35 -1.65,5.55 -6.9,11.25 -1.5,1.95 -3.9,1.95 -0.3,0 -0.9,0 -0.45,-0.15 -0.6,-0.15 -0.6,-0.3 -1.95,-0.9 -1.35,-0.75 -3,-1.5 -1.5,-0.75 -2.85,-1.35 -1.35,-0.75 -1.95,-1.05 -0.9,-0.3 -2.55,-0.75 -1.65,-0.45 -3.45,-1.05 -1.8,-0.6 -3.45,-1.35 -1.65,-0.9 -2.25,-1.8 z" />
      </g>
      <g
         style="fill:#b00017;fill-opacity:1"
         transform="translate(-381.56016,125.55)"
         id="g901">
        <path
           inkscape:connector-curvature="0"
           id="path876"
           style="font-style:normal;font-variant:normal;font-weight:normal;font-stretch:normal;font-size:medium;line-height:1.25;font-family:'Teutonic No1';-inkscape-font-specification:'Teutonic No1';letter-spacing:0px;word-spacing:0px;fill:#b00017;fill-opacity:1;stroke:none;stroke-width:3.75"
           d="m -146.29686,-2049.0251 q 0,6.9 3.75,12 3.75,5.25 9.45,8.7 5.7,3.6 12.3,5.4 6.75,1.8 12.6,1.8 10.499997,0 18.899997,-3.9 8.4,-3.75 16.2,-10.8 1.05,-0.9 3.15,-2.85 2.1,-1.95 2.85,-3.9 0.15,0 0.15,-0.6 h -1.2 q -2.4,2.55 -5.55,5.55 -3.15,3 -6.75,5.55 -3.6,2.55 -7.5,4.2 -3.9,1.8 -7.8,1.8 h -18.899997 q -4.5,0 -9.75,-1.8 -5.25,-1.8 -9.9,-4.95 -4.65,-3.15 -7.8,-7.5 -3,-4.2 -3,-9.15 0,-4.95 1.95,-8.55 2.1,-3.6 5.4,-6 3.45,-2.4 7.5,-3.6 4.2,-1.2 8.55,-1.2 9.75,0 18.15,3.3 8.399997,3.3 15.749997,9.6 0.45,0.3 1.05,1.35 0.75,1.05 1.5,2.1 0.75,1.05 1.5,1.95 0.75,0.75 1.2,0.75 h 0.3 q 3.3,-3.45 6.9,-6.75 3.75,-3.3 8.25,-4.95 0.45,-0.15 1.5,-0.45 1.2,-0.45 1.5,-0.6 0.9,-0.45 2.7,-1.35 1.8,-0.9 3.45,-1.8 1.8,-0.9 3.15,-1.5 1.5,-0.75 1.8,-1.05 11.7,-6.6 18.6,-17.85 7.05,-11.25 7.05,-25.05 v -0.3 q -0.15,-0.15 -0.3,-0.6 -0.15,-0.45 -0.45,-0.6 0.45,-7.8 -1.2,-15.3 -1.65,-7.5 -5.4,-13.95 -3.75,-6.6 -9.45,-11.85 -5.55,-5.25 -13.05,-8.4 -2.7,-1.05 -6.3,-1.65 -3.6,-0.75 -7.5,-1.2 -3.75,-0.45 -7.35,-0.6 -3.6,-0.15 -6,-0.15 h -2.7 q -0.75,0 -3.3,0.3 -2.55,0.3 -5.7,0.6 -3,0.3 -5.699997,0.6 -2.55,0.3 -3.15,0.3 -1.2,0.15 -2.7,0 -1.35,-0.15 -2.7,-0.15 -1.35,0 -2.7,0.3 -1.2,0.15 -2.1,1.05 -0.75,0.15 -2.4,0.3 -1.65,0.15 -3.45,0.45 -1.8,0.15 -3.6,0.45 -1.65,0.15 -2.25,0.15 h -3.3 q -4.35,0 -7.8,-1.8 -3.3,-1.8 -5.4,-5.55 h -1.35 q 0,6.3 2.55,10.5 2.7,4.05 6.9,6.45 4.2,2.4 9.45,3.45 5.4,0.9 10.65,0.9 h 0.45 q 0.3,-0.15 0.9,-0.3 0.75,-0.15 0.9,-0.3 1.5,0 5.25,0 3.75,-0.15 7.949997,-0.3 4.2,-0.15 7.8,-0.15 3.75,-0.15 5.25,-0.15 h 4.2 q 10.5,0 17.7,3.15 7.35,3 11.85,8.7 4.5,5.55 6.45,13.5 1.95,7.95 1.95,17.7 0,10.8 -3.15,20.25 -3,9.3 -10.8,16.65 -1.95,1.65 -4.5,3.3 -2.55,1.5 -5.25,1.5 h -0.75 q -4.05,-4.35 -7.8,-7.35 -3.75,-3.15 -7.95,-5.1 -4.05,-2.1 -8.85,-3 -4.8,-1.05 -11.099997,-1.05 -5.55,0 -11.85,1.5 -6.3,1.35 -12.15,4.2 -5.7,2.7 -10.35,7.05 -4.65,4.2 -6.75,9.9 -0.45,1.35 -0.6,4.2 0,2.85 0,4.5 z m 42.15,-35.4 q 0,1.2 1.05,1.2 4.049997,0 7.799997,-2.4 3.9,-2.55 6.9,-6.3 3.15,-3.75 4.95,-8.1 1.8,-4.5 1.8,-8.25 0,-3.9 -1.05,-6.75 -1.05,-2.85 -2.85,-5.1 -1.65,-2.4 -4.05,-4.65 -2.25,-2.25 -4.8,-4.95 -0.3,-0.3 -0.9,-0.9 -0.45,-0.75 -0.45,-0.9 v -7.35 q 0,-0.75 0.45,-1.2 0.6,-0.6 1.2,-1.2 0.6,-0.6 1.05,-1.2 0.6,-0.6 0.6,-1.5 -2.85,0 -5.7,2.55 -2.699997,2.4 -4.949997,6 -2.1,3.45 -3.45,7.2 -1.35,3.75 -1.35,6.45 0,5.1 2.1,8.4 2.25,3.3 4.95,6 2.699997,2.7 4.799997,5.25 2.25,2.4 2.25,5.7 0,3.15 -1.65,5.25 -1.65,2.1 -3.6,3.45 -1.799997,1.35 -3.449997,2.1 -1.65,0.75 -1.65,1.2 z" />
        <path
           inkscape:connector-curvature="0"
           id="path878"
           style="font-style:normal;font-variant:normal;font-weight:normal;font-stretch:normal;font-size:medium;line-height:1.25;font-family:'Teutonic No1';-inkscape-font-specification:'Teutonic No1';letter-spacing:0px;word-spacing:0px;fill:#b00017;fill-opacity:1;stroke:none;stroke-width:3.75"
           d="m -23.542957,-2089.9751 q 0,10.05 1.5,16.05 1.65,6 5.1,9.9 3.45,3.9 9.0000005,6.75 5.55,2.7 13.5,6.15 h 0.6 q 4.7999995,-4.95 9.7499995,-9.6 5.1,-4.8 10.35,-9.3 0.75,-0.75 1.05,-1.2 0.3,-0.6 0.3,-1.65 -1.35,0 -2.4,0.75 -1.05,0.6 -2.1,1.5 -1.05,0.9 -2.1,1.8 -0.9,0.9 -2.1,1.35 -2.4,1.2 -4.35,1.35 -1.95,0 -4.5,0 -3.2999995,0 -6.7499995,-1.2 -3.30000004,-1.35 -6.15,-3.6 -2.7,-2.25 -4.5,-5.25 -1.65,-3.15 -1.65,-6.9 0,-1.35 1.8,-1.95 1.95,-0.75 4.5,-1.05 2.54999996,-0.45 5.1,-0.75 2.55,-0.3 3.75,-0.75 3.45,-1.35 6.7499995,-3.45 3.3,-2.1 5.85,-4.8 2.55,-2.85 4.05,-6.15 1.65,-3.45 1.65,-7.35 v -3.6 q -2.1,-5.85 -6.6,-9 -4.5,-3.15 -9.7499995,-5.7 -0.15,-0.15 -0.75,-0.15 -0.75,0 -1.5,0.9 -0.6,0.75 -1.35,1.8 -0.6,1.05 -1.35,2.1 -0.6,0.9 -1.2,1.35 -4.5,3 -9.15,6 -4.5000005,3 -8.1000005,6.75 -3.6,3.75 -6,8.4 -2.25,4.5 -2.25,10.5 z m 23.10000046,-25.5 q 5.40000004,0 9.00000004,3.6 3.7499995,3.45 3.7499995,8.85 0,3.75 -1.95,6.75 -1.9499995,3 -4.9499995,5.1 -2.85,2.1 -6.45,3.3 -3.6,1.05 -6.9,1.05 h -0.45 q -0.6,-0.45 -1.5,-1.35 -0.9000005,-0.9 -0.9000005,-1.2 v -15.15 q 0,-4.5 3.0000005,-7.65 3,-3.3 7.34999996,-3.3 z" />
        <path
           inkscape:connector-curvature="0"
           id="path880"
           style="font-style:normal;font-variant:normal;font-weight:normal;font-stretch:normal;font-size:medium;line-height:1.25;font-family:'Teutonic No1';-inkscape-font-specification:'Teutonic No1';letter-spacing:0px;word-spacing:0px;fill:#b00017;fill-opacity:1;stroke:none;stroke-width:3.75"
           d="m 34.2422,-2066.7251 q 0,0.6 0.45,1.05 0.6,0.3 1.2,0.45 0.75,0.15 1.35,0.15 0.6,0 0.6,0 h 5.7 q 2.85,0.15 7.05,1.5 4.35,1.2 8.7,3.15 4.35,1.8 8.1,4.05 3.9,2.1 6,4.05 h 3.6 q 0.3,-0.3 0.9,-0.9 0.75,-0.75 1.5,-1.5 0.75,-0.9 1.35,-1.5 0.75,-0.6 1.05,-0.9 0.15,-0.15 1.05,-0.75 1.05,-0.75 1.95,-1.5 1.05,-0.75 1.95,-1.35 0.9,-0.6 1.2,-0.75 3.9,-3 7.95,-7.2 4.2,-4.2 7.35,-7.35 4.65,-4.95 6.3,-10.65 1.65,-5.85 1.65,-12.6 0,-4.2 -0.9,-8.7 -0.9,-4.65 -4.05,-7.65 l -13.5,-13.5 h -1.2 q -3.15,2.7 -6.6,4.95 -3.45,2.25 -7.05,4.35 -3.45,2.1 -7.05,4.35 -3.45,2.1 -6.6,4.65 h -0.75 q -0.45,0 -1.8,-3 -1.2,-3.15 -3.3,-6.75 -1.95,-3.75 -4.8,-6.75 -2.7,-3.15 -6.15,-3.15 -0.3,0 -0.3,0.15 l -15.9,14.7 v 0.6 q 0,0.6 0,1.2 0.15,0.6 0.9,0.6 0.9,0 1.65,-0.6 0.9,-0.6 1.8,-1.2 0.9,-0.75 1.8,-1.35 1.05,-0.6 2.1,-0.6 1.95,0 3.45,1.05 1.5,1.05 2.55,2.7 1.05,1.65 1.5,3.6 0.6,1.95 0.6,3.6 v 27.45 q 0,2.7 -2.1,4.8 -2.1,2.1 -4.65,3.6 -2.4,1.35 -4.5,2.25 -2.1,0.75 -2.1,1.2 z m 28.2,-8.85 v -10.95 q 0,-0.15 -0.45,-1.05 -0.3,-1.05 -0.3,-1.35 v -1.05 -1.35 q 0,-0.75 0,-2.7 0.15,-2.1 0.3,-4.35 0.15,-2.25 0.15,-4.2 0.15,-2.1 0.3,-2.85 3.45,-3.6 7.65,-6.9 4.2,-3.3 9.6,-3.3 5.4,0 9.15,2.85 3.75,2.7 6.15,6.9 2.4,4.05 3.45,9 1.05,4.95 1.05,9.3 0,7.65 -4.2,13.2 -4.2,5.4 -10.35,9.3 h -0.9 q -0.45,0 -3.9,-1.5 -3.3,-1.65 -7.35,-3.45 -3.9,-1.95 -7.2,-3.6 -3.15,-1.65 -3.15,-1.95 z" />
      </g>
    </g>
  </g>
</svg>
