<?xml version="1.0" encoding="UTF-8" standalone="no"?>
<!-- Created with Inkscape (http://www.inkscape.org/) -->

<svg
   xmlns:dc="http://purl.org/dc/elements/1.1/"
   xmlns:cc="http://creativecommons.org/ns#"
   xmlns:rdf="http://www.w3.org/1999/02/22-rdf-syntax-ns#"
   xmlns:svg="http://www.w3.org/2000/svg"
   xmlns="http://www.w3.org/2000/svg"
   xmlns:sodipodi="http://sodipodi.sourceforge.net/DTD/sodipodi-0.dtd"
   xmlns:inkscape="http://www.inkscape.org/namespaces/inkscape"
   width="93.157677mm"
   height="115.5954mm"
   viewBox="0 0 330.08626 409.59"
   id="svg2"
   version="1.1"
   inkscape:version="0.92.2 (unknown)"
   sodipodi:docname="dcorpdev_tmp.svg">
  <defs
     id="defs4" />
  <sodipodi:namedview
     id="base"
     pagecolor="#ffffff"
     bordercolor="#666666"
     borderopacity="1.0"
     inkscape:pageopacity="0.0"
     inkscape:pageshadow="2"
     inkscape:zoom="0.35"
     inkscape:cx="128.57608"
     inkscape:cy="13.22094"
     inkscape:document-units="px"
     inkscape:current-layer="layer1"
     showgrid="false"
     fit-margin-top="0"
     fit-margin-left="0"
     fit-margin-right="0"
     fit-margin-bottom="0"
     inkscape:window-width="1366"
     inkscape:window-height="716"
     inkscape:window-x="0"
     inkscape:window-y="0"
     inkscape:window-maximized="1" />
  <metadata
     id="metadata7">
    <rdf:RDF>
      <cc:Work
         rdf:about="">
        <dc:format>image/svg+xml</dc:format>
        <dc:type
           rdf:resource="http://purl.org/dc/dcmitype/StillImage" />
        <dc:title></dc:title>
      </cc:Work>
    </rdf:RDF>
  </metadata>
  <g
     inkscape:label="Layer 1"
     inkscape:groupmode="layer"
     id="layer1"
     transform="translate(1192.1476,-164.56458)">
    <g
       style="font-style:normal;font-weight:normal;font-size:416.25px;line-height:125%;font-family:Sans;letter-spacing:0px;word-spacing:0px;fill:#000000;fill-opacity:1;stroke:none;stroke-width:1px;stroke-linecap:butt;stroke-linejoin:miter;stroke-opacity:1"
       id="flowRoot4136">
      <path
         d="m -1192.1476,496.73208 q 0,19.1475 10.4063,33.3 10.4062,14.56875 26.2237,24.1425 15.8175,9.99 34.1325,14.985 18.7313,4.995 34.965,4.995 29.1375,0 52.4475,-10.8225 23.31,-10.40625 44.95502,-29.97 2.91375,-2.4975 8.74125,-7.90875 5.8275,-5.41125 7.90875,-10.8225 0.41625,0 0.41625,-1.665 l -3.33,0 q -6.66,7.07625 -15.40125,15.40125 -8.74125,8.325 -18.73122,15.40125 -9.99,7.07625 -20.8125,11.655 -10.8225,4.995 -21.645,4.995 l -52.4475,0 q -12.4875,0 -27.0563,-4.995 -14.5687,-4.995 -27.4725,-13.73625 -12.9037,-8.74125 -21.645,-20.8125 -8.325,-11.655 -8.325,-25.39125 0,-13.73625 5.4113,-23.72625 5.8275,-9.99 14.985,-16.65 9.5737,-6.66 20.8125,-9.99 11.655,-3.33 23.7262,-3.33 27.0563,0 50.3663,9.1575 23.31,9.1575 43.7062,26.64 1.2488,0.8325 2.9138,3.74625 2.0812,2.91375 4.1625,5.8275 2.0812,2.91375 4.1625,5.41125 2.0812,2.08125 3.33,2.08125 l 0.8325,0 q 9.1575,-9.57375 19.14747,-18.73125 10.40625,-9.1575 22.89375,-13.73625 1.24875,-0.41625 4.1625,-1.24875 3.33,-1.24875 4.1625,-1.665 2.4975,-1.24875 7.4925,-3.74625 4.995,-2.4975 9.57375,-4.995 4.995,-2.4975 8.74125,-4.1625 4.1625,-2.08125 4.995,-2.91375 32.4675,-18.315 51.615,-49.53375 19.56375,-31.21875 19.56375,-69.51375 l 0,-0.8325 q -0.41625,-0.41625 -0.8325,-1.665 -0.41625,-1.24875 -1.24875,-1.665 1.24875,-21.645 -3.33,-42.4575 -4.57875,-20.8125 -14.985,-38.71125 -10.40625,-18.315 -26.22375,-32.88375 -15.40125,-14.56875 -36.21375,-23.31 -7.4925,-2.91375 -17.4825,-4.57875 -9.99,-2.08125 -20.8125,-3.33 -10.40625,-1.24875 -20.39622,-1.665 -9.99,-0.41625 -16.65,-0.41625 l -7.4925,0 q -2.0813,0 -9.1575,0.8325 -7.0763,0.8325 -15.8175,1.665 -8.325,0.8325 -15.8175,1.665 -7.0763,0.8325 -8.7413,0.8325 -3.33,0.41625 -7.4925,0 -3.7462,-0.41625 -7.4925,-0.41625 -3.7462,0 -7.4925,0.8325 -3.33,0.41625 -5.8275,2.91375 -2.0812,0.41625 -6.66,0.8325 -4.5787,0.41625 -9.5737,1.24875 -4.995,0.41625 -9.99,1.24875 -4.5788,0.41625 -6.2438,0.41625 l -9.1575,0 q -12.0712,0 -21.645,-4.995 -9.1575,-4.995 -14.985,-15.40125 l -3.7462,0 q 0,17.4825 7.0762,29.1375 7.4925,11.23875 19.1475,17.89875 11.655,6.66 26.2238,9.57375 14.985,2.4975 29.5537,2.4975 l 1.2488,0 q 0.8325,-0.41625 2.4975,-0.8325 2.0812,-0.41625 2.4975,-0.8325 4.1625,0 14.5687,0 10.4063,-0.41625 22.0613,-0.8325 11.655,-0.41625 21.645,-0.41625 10.4062,-0.41625 14.5687,-0.41625 l 11.655,0 q 29.13752,0 49.11752,8.74125 20.39625,8.325 32.88375,24.1425 12.4875,15.40125 17.89875,37.4625 5.41125,22.06125 5.41125,49.1175 0,29.97 -8.74125,56.19375 -8.325,25.8075 -29.97,46.20375 -5.41125,4.57875 -12.4875,9.1575 -7.07625,4.1625 -14.56875,4.1625 l -2.08125,0 q -11.23875,-12.07125 -21.645,-20.39625 -10.40622,-8.74125 -22.06122,-14.1525 -11.2388,-5.8275 -24.5588,-8.325 -13.32,-2.91375 -30.8025,-2.91375 -15.4012,0 -32.8837,4.1625 -17.4825,3.74625 -33.7163,11.655 -15.8175,7.4925 -28.7212,19.56375 -12.9038,11.655 -18.7313,27.4725 -1.2487,3.74625 -1.665,11.655 0,7.90875 0,12.4875 z m 116.9663,-98.235 q 0,3.33 2.9137,3.33 11.2388,0 21.645,-6.66 10.8225,-7.07625 19.1475,-17.4825 8.7413,-10.40625 13.7363,-22.4775 4.995,-12.4875 4.995,-22.89375 0,-10.8225 -2.9138,-18.73125 -2.9137,-7.90875 -7.9087,-14.1525 -4.5788,-6.66 -11.2388,-12.90375 -6.2437,-6.24375 -13.32,-13.73625 -0.8325,-0.8325 -2.4975,-2.4975 -1.2487,-2.08125 -1.2487,-2.4975 l 0,-20.39625 q 0,-2.08125 1.2487,-3.33 1.665,-1.665 3.33,-3.33 1.665,-1.665 2.9138,-3.33 1.665,-1.665 1.665,-4.1625 -7.9088,0 -15.8175,7.07625 -7.4925,6.66 -13.7363,16.65 -5.8275,9.57375 -9.5737,19.98 -3.7463,10.40625 -3.7463,17.89875 0,14.1525 5.8275,23.31 6.2438,9.1575 13.7363,16.65 7.4925,7.4925 13.32,14.56875 6.2437,6.66 6.2437,15.8175 0,8.74125 -4.5787,14.56875 -4.5788,5.8275 -9.99,9.57375 -4.995,3.74625 -9.5738,5.8275 -4.5787,2.08125 -4.5787,3.33 z"
         style="font-style:normal;font-variant:normal;font-weight:600;font-stretch:normal;font-size:416.25px;font-family:'Teutonic No1';-inkscape-font-specification:'Teutonic No1 Semi-Bold';fill:#530c10;fill-opacity:1"
         id="path4138" />
    </g>
  </g>
</svg>
